<svg xmlns="http://www.w3.org/2000/svg" width="512" height="512" viewBox="0 0 512 512" fill="none">
  <rect width="512" height="512" rx="36" fill="#F4F8FF"/>
  <rect x="36" y="36" width="440" height="440" rx="24" fill="white" stroke="#BFD3F3" stroke-width="16"/>
  <rect x="76" y="76" width="96" height="96" fill="#4F8DF7"/>
  <rect x="92" y="92" width="64" height="64" fill="white"/>
  <rect x="108" y="108" width="32" height="32" fill="#4F8DF7"/>
  <rect x="340" y="76" width="96" height="96" fill="#4F8DF7"/>
  <rect x="356" y="92" width="64" height="64" fill="white"/>
  <rect x="372" y="108" width="32" height="32" fill="#4F8DF7"/>
  <rect x="76" y="340" width="96" height="96" fill="#4F8DF7"/>
  <rect x="92" y="356" width="64" height="64" fill="white"/>
  <rect x="108" y="372" width="32" height="32" fill="#4F8DF7"/>
  <rect x="220" y="92" width="24" height="24" fill="#4F8DF7"/>
  <rect x="268" y="92" width="24" height="24" fill="#4F8DF7"/>
  <rect x="220" y="140" width="24" height="24" fill="#4F8DF7"/>
  <rect x="244" y="164" width="24" height="24" fill="#4F8DF7"/>
  <rect x="292" y="164" width="24" height="24" fill="#4F8DF7"/>
  <rect x="220" y="220" width="24" height="24" fill="#4F8DF7"/>
  <rect x="252" y="220" width="24" height="24" fill="#4F8DF7"/>
  <rect x="284" y="220" width="24" height="24" fill="#4F8DF7"/>
  <rect x="316" y="220" width="24" height="24" fill="#4F8DF7"/>
  <rect x="348" y="220" width="24" height="24" fill="#4F8DF7"/>
  <rect x="220" y="252" width="24" height="24" fill="#4F8DF7"/>
  <rect x="284" y="252" width="24" height="24" fill="#4F8DF7"/>
  <rect x="348" y="252" width="24" height="24" fill="#4F8DF7"/>
  <rect x="220" y="284" width="24" height="24" fill="#4F8DF7"/>
  <rect x="252" y="284" width="24" height="24" fill="#4F8DF7"/>
  <rect x="316" y="284" width="24" height="24" fill="#4F8DF7"/>
  <rect x="380" y="284" width="24" height="24" fill="#4F8DF7"/>
  <rect x="220" y="316" width="24" height="24" fill="#4F8DF7"/>
  <rect x="284" y="316" width="24" height="24" fill="#4F8DF7"/>
  <rect x="348" y="316" width="24" height="24" fill="#4F8DF7"/>
  <rect x="252" y="348" width="24" height="24" fill="#4F8DF7"/>
  <rect x="316" y="348" width="24" height="24" fill="#4F8DF7"/>
  <rect x="380" y="348" width="24" height="24" fill="#4F8DF7"/>
  <rect x="220" y="380" width="24" height="24" fill="#4F8DF7"/>
  <rect x="252" y="380" width="24" height="24" fill="#4F8DF7"/>
  <rect x="284" y="380" width="24" height="24" fill="#4F8DF7"/>
  <text x="256" y="470" text-anchor="middle" fill="#4F8DF7" font-family="Arial, sans-serif" font-size="28" font-weight="700">PromptPay QR</text>
</svg>
